<svg width="40" height="40" viewBox="0 0 40 40" fill="none" xmlns="http://www.w3.org/2000/svg">
<path d="M9.61283 16.4883C9.21332 16.4883 8.8582 16.6457 8.59187 16.938C8.30333 17.2303 8.17017 17.5902 8.17017 18.0175C8.17017 18.4448 8.30333 18.7822 8.59187 19.097C8.8804 19.3893 9.21332 19.5468 9.61283 19.5468C10.0123 19.5468 10.3674 19.3893 10.656 19.097C10.9445 18.8047 11.0999 18.4448 11.0999 18.0175C11.0999 17.5902 10.9445 17.2303 10.656 16.938C10.3674 16.6232 10.0345 16.4883 9.61283 16.4883Z" fill="white"/>
<path d="M22.064 16.4653C21.6645 16.4653 21.3093 16.6228 21.043 16.915C20.7545 17.2074 20.6213 17.5672 20.6213 17.9945C20.6213 18.4219 20.7545 18.7592 21.043 19.074C21.3315 19.3664 21.6645 19.5239 22.064 19.5239C22.4635 19.5239 22.8187 19.3664 23.1072 19.074C23.3957 18.7817 23.551 18.4219 23.551 17.9945C23.551 17.5672 23.3957 17.2299 23.1072 16.915C22.8408 16.6003 22.4857 16.4653 22.064 16.4653Z" fill="white"/>
<path d="M30.3872 16.4883C29.9877 16.4883 29.6325 16.6457 29.3662 16.938C29.0777 17.2303 28.9445 17.5902 28.9445 18.0175C28.9445 18.4448 29.0777 18.7822 29.3662 19.097C29.6547 19.3893 29.9877 19.5468 30.3872 19.5468C30.7867 19.5468 31.1418 19.3893 31.4303 19.097C31.7188 18.8047 31.8742 18.4448 31.8742 18.0175C31.8742 17.5902 31.7188 17.2303 31.4303 16.938C31.1418 16.6232 30.7867 16.4883 30.3872 16.4883Z" fill="white"/>
<path d="M34.0715 5.37891H5.92841C3.77551 5.37891 1.99992 7.17802 1.99992 9.35942V25.4839C1.99992 27.6653 3.77551 29.4644 5.92841 29.4644H16.9815C16.9815 29.4644 19.1122 35.3789 19.889 35.3789C20.6658 35.3789 22.974 29.4644 22.974 29.4644H34.0715C36.2243 29.4644 38 27.6653 38 25.4839V9.35942C38 7.17802 36.2243 5.37891 34.0715 5.37891ZM12.4537 20.2664C11.8988 20.8961 11.0332 21.1661 10.101 21.1661C9.25762 21.1661 8.63617 20.9186 8.19227 20.5588H8.17009V21.0086H6.06157V11.6758H8.17009V15.2515H8.21447C8.79154 14.7567 9.54616 14.5993 10.434 14.5543C11.1886 14.5318 11.9876 15.0041 12.4759 15.5663C12.942 16.1285 13.2971 17.0056 13.2971 17.9726C13.2971 19.0296 13.0308 19.6368 12.4537 20.2664ZM17.0037 21.0986H14.8507C14.8507 21.0986 14.8507 16.196 14.8507 15.3189C14.8507 13.9921 13.8076 13.8122 13.8076 13.8122V11.4959C13.8076 11.4959 16.826 11.6758 17.0037 15.3864C17.0037 16.4434 17.0037 21.0986 17.0037 21.0986ZM25.4598 19.3219C25.2823 19.7493 25.016 20.1091 24.6608 20.4464C24.3278 20.7613 23.9283 21.0086 23.4845 21.1886C23.0407 21.3684 22.5745 21.4584 22.0862 21.4584C21.598 21.4584 21.1318 21.3684 20.7102 21.1886C20.2663 21.0086 19.8668 20.7613 19.5338 20.4464C19.1787 20.1091 18.9123 19.7268 18.7348 19.3219C18.5573 18.9171 18.4685 18.4674 18.4685 17.9951C18.4685 17.5229 18.5573 17.0956 18.7348 16.6683C18.9123 16.2635 19.1787 15.8812 19.5338 15.5438C19.889 15.229 20.2663 14.9816 20.7102 14.8017C21.154 14.6218 21.6202 14.5318 22.0862 14.5318C22.5745 14.5318 23.0407 14.6218 23.4845 14.8017C23.9283 14.9816 24.3278 15.229 24.6608 15.5438C25.016 15.8812 25.2602 16.241 25.4598 16.6683C25.6373 17.0956 25.7262 17.5229 25.7262 17.9951C25.7262 18.4674 25.6373 18.8946 25.4598 19.3219ZM33.9383 20.2439C33.9383 21.8856 33.6275 22.8751 32.9173 23.5723C32.0517 24.4044 30.831 24.4494 29.81 24.3144V22.6278C30.6757 22.7178 31.852 22.1331 31.852 21.0086V20.5813H31.8298C31.3415 21.2559 30.6535 21.5034 29.699 21.5034C28.8335 21.5034 28.0788 21.1886 27.5683 20.5813C27.0578 19.9741 26.8137 19.1646 26.8137 18.1526C26.8137 17.0056 27.1023 16.1061 27.6572 15.4314C28.2342 14.7567 29.0332 14.4419 29.9653 14.4419C30.7867 14.4419 31.3193 14.6443 31.8298 15.1165H31.852V14.5993H33.9605V20.2439H33.9383Z" fill="white"/>
</svg>
