<svg width="106" height="36" viewBox="0 0 106 36" fill="none" xmlns="http://www.w3.org/2000/svg">
<path d="M17.8569 0.065918C19.7777 0.065918 21.3449 0.594408 22.555 1.6526L22.5562 1.65139C23.7675 2.70837 24.3725 4.0788 24.3725 5.76146C24.3725 8.00177 23.4115 9.71845 21.4907 10.9127C20.8978 11.2821 20.113 11.5506 19.1423 11.7194C18.9904 11.7559 18.8337 11.7765 18.6709 11.7765C17.5361 11.7765 16.6177 10.8568 16.6177 9.72331C16.6177 8.72708 17.326 7.89729 18.2663 7.71019V7.70533C19.4812 7.43805 20.0911 6.81965 20.0911 5.8465C20.0911 5.32409 19.8554 4.90251 19.384 4.5842C18.9126 4.26589 18.2845 4.10674 17.4997 4.10674C16.2714 4.10674 15.1537 4.48822 14.1477 5.24998C13.335 5.86594 12.8283 6.55116 12.6279 7.30805C12.6279 7.30805 12.1152 8.90203 13.3398 10.4061L15.5643 13.1737L16.1523 13.9148L17.0562 15.0058C18.8069 17.1659 19.6829 19.5192 19.6829 21.8616C19.6829 24.204 18.9102 26.256 17.3636 28.0188C15.2484 30.4401 12.4796 31.6514 9.05722 31.6514C6.40748 31.6514 4.23521 30.8362 2.54161 29.2046C0.846798 27.5729 0 25.4833 0 22.9368C0 19.8217 1.31819 17.223 3.95821 15.1419C4.34212 14.8394 4.71753 14.5806 5.08444 14.3607L5.08687 14.3643C5.39181 14.2015 5.74049 14.108 6.11104 14.108C7.31138 14.108 8.28453 15.0811 8.28453 16.2815C8.28453 17.087 7.84473 17.7892 7.19232 18.1646L7.19718 18.1731C6.41963 18.6615 5.77208 19.3394 5.25331 20.2081C4.72968 21.084 4.46847 21.9478 4.46847 22.8007C4.46847 24.1529 4.9265 25.2706 5.84133 26.1515C6.75616 27.0323 7.91884 27.4733 9.32936 27.4733C10.8869 27.4733 12.2403 26.8901 13.3884 25.725C14.5365 24.5599 15.1112 23.1871 15.1112 21.6065C15.1112 20.6066 14.8779 19.6966 14.4114 18.8777C13.9448 18.0589 12.9389 16.7905 11.3923 15.0738C10.3147 13.8832 9.54319 12.8396 9.07666 11.943C8.15454 9.95415 8.14482 8.39783 8.20313 7.71991C8.45948 5.53184 9.48123 3.71675 11.2732 2.27464C13.1041 0.802159 15.2983 0.065918 17.8569 0.065918Z" fill="white"/>
<path fill-rule="evenodd" clip-rule="evenodd" d="M34.5574 11.6136C31.9319 9.34295 27.6591 9.98078 25.0154 13.0375C22.3705 16.0955 22.3559 20.4145 24.9814 22.6852C27.6068 24.9559 31.8797 24.3181 34.5234 21.2613C37.1682 18.2034 37.1828 13.8843 34.5574 11.6136ZM31.6938 18.8145C30.6235 20.0525 28.8946 20.31 27.8316 19.3903C26.7685 18.4706 26.7746 16.7224 27.8449 15.4856C28.9153 14.2476 30.6441 13.99 31.7072 14.9097C32.7702 15.8294 32.7641 17.5777 31.6938 18.8145Z" fill="white"/>
<path d="M76.5603 21.3842C76.5603 22.0779 76.3064 22.6185 75.801 23.0049L75.8046 23.0073C75.298 23.3936 74.5958 23.5868 73.698 23.5868H70.2354C69.4846 23.5868 68.8772 23.3888 68.4106 22.9903C67.9441 22.5918 67.7108 22.0682 67.7108 21.4206C67.7108 20.9772 67.8651 20.3746 68.1713 19.6128L69.7738 15.7069C69.8649 15.4797 69.9098 15.2695 69.9098 15.0763C69.9098 14.3376 69.5357 13.9683 68.7848 13.9683C68.2053 13.9683 67.6307 14.2307 67.0621 14.7531C66.4935 15.2768 66.0391 15.9705 65.6977 16.8343L63.7879 21.5409C63.1622 23.0644 62.2522 23.8262 61.0592 23.8262C60.5926 23.8262 60.1941 23.6731 59.8649 23.3657C59.5344 23.0595 59.3704 22.6951 59.3704 22.2747C59.3704 21.9442 59.4555 21.5579 59.6268 21.1145L59.8139 20.654L61.7407 15.8952C61.912 15.4748 61.9971 15.1565 61.9971 14.9062C61.9971 14.6559 61.8829 14.436 61.6557 14.249C61.4273 14.0606 61.1612 13.9671 60.8538 13.9671C59.6268 13.9671 58.6536 14.854 57.938 16.6278L55.9419 21.5227C55.3162 23.0571 54.4123 23.8249 53.2302 23.8249C52.7637 23.8249 52.3628 23.6743 52.0275 23.373C51.6921 23.0729 51.5245 22.706 51.5245 22.2735C51.5245 21.9321 51.6095 21.5458 51.7808 21.1132L55.3624 12.2954C55.8399 11.1242 56.5227 10.5386 57.5116 10.5386C58.5005 10.5386 59.1153 11.0051 59.3534 11.937C60.1261 11.2773 60.7542 10.8399 61.2378 10.6236C61.7213 10.4074 62.3142 10.2993 63.02 10.2993C64.5423 10.2993 65.6856 10.965 66.4473 12.2954C67.7206 10.9638 69.153 10.2993 70.7445 10.2993C71.8355 10.2993 72.7479 10.6151 73.4817 11.2457C74.2155 11.8762 74.5824 12.6525 74.5824 13.5735C74.5824 14.153 74.4561 14.7507 74.207 15.3642L72.3822 19.8667H74.4111C75.8447 19.8667 76.5603 20.3721 76.5603 21.3842Z" fill="white"/>
<path fill-rule="evenodd" clip-rule="evenodd" d="M87.9868 11.6636C88.5213 10.7536 89.277 10.2993 90.255 10.2993C90.7325 10.2993 91.1395 10.4572 91.4748 10.7694C91.8101 11.0817 91.9778 11.4595 91.9778 11.9029C91.9778 12.2565 91.8308 12.7959 91.5343 13.5236L87.253 24.0643H89.3001C90.7447 24.0643 91.4663 24.5636 91.4663 25.5647C91.4663 26.2584 91.21 26.8015 90.6985 27.1939C90.1858 27.5863 89.4811 27.7819 88.5833 27.7819H85.7525L85.0357 29.5387C83.296 33.8019 80.7544 35.934 77.4121 35.934C75.6602 35.934 74.2023 35.3934 73.0372 34.3133C71.8721 33.2333 71.2889 31.8799 71.2889 30.2543C71.2889 29.1961 71.5708 28.2047 72.1333 27.2777C72.6958 26.3508 73.4661 25.6145 74.4441 25.069C75.6493 24.3984 77.27 24.0631 79.305 24.0631H82.9716L83.5001 22.7327C82.7845 23.164 82.1078 23.3803 81.4712 23.3803C80.2538 23.3803 79.2673 22.9599 78.5116 22.118C77.7559 21.2773 77.3781 20.1802 77.3781 18.8268C77.3781 16.6436 78.1459 14.6766 79.6804 12.9259C81.216 11.1752 82.9388 10.2993 84.8486 10.2993C86.247 10.2993 87.2931 10.7548 87.9868 11.6636ZM77.2931 32.1812C78.1119 32.1812 78.8287 31.8568 79.4423 31.2092C80.0558 30.5605 80.7264 29.4196 81.4542 27.7819H78.5043C77.4814 27.7819 76.688 27.997 76.1255 28.4295C75.563 28.8608 75.2812 29.4695 75.2812 30.2543C75.2812 30.7889 75.4743 31.2432 75.8607 31.6186C76.247 31.9941 76.7245 32.1812 77.2931 32.1812ZM85.0369 18.947L86.4183 15.5696L86.4195 15.5708C86.5325 15.2865 86.5896 15.0532 86.5896 14.871C86.5896 14.5296 86.439 14.2453 86.1377 14.0181C85.8364 13.7909 85.4573 13.6767 85.0029 13.6767C84.1841 13.6767 83.4029 14.1457 82.6581 15.0836C81.9134 16.0215 81.5404 17.0141 81.5404 18.0602C81.5404 19.2544 82.0968 19.8509 83.2121 19.8509C84.178 19.8509 84.7867 19.5496 85.0369 18.947Z" fill="white"/>
<path fill-rule="evenodd" clip-rule="evenodd" d="M39.4449 13.0375C42.0886 9.98078 46.3614 9.34295 48.9869 11.6136C51.6123 13.8843 51.5977 18.2034 48.9528 21.2613C46.3092 24.3181 42.0363 24.9559 39.4109 22.6852C36.7854 20.4145 36.8 16.0955 39.4449 13.0375ZM42.2611 19.3903C43.3241 20.31 45.053 20.0525 46.1233 18.8145C47.1936 17.5777 47.1997 15.8294 46.1367 14.9097C45.0736 13.99 43.3448 14.2476 42.2744 15.4856C41.2041 16.7224 41.198 18.4706 42.2611 19.3903Z" fill="white"/>
<path fill-rule="evenodd" clip-rule="evenodd" d="M104.041 11.6136C101.415 9.34295 97.1423 9.98078 94.4986 13.0375C91.8537 16.0955 91.8392 20.4145 94.4646 22.6852C97.09 24.9559 101.363 24.3181 104.007 21.2613C106.651 18.2034 106.666 13.8843 104.041 11.6136ZM101.177 18.8145C100.107 20.0525 98.3779 20.31 97.3148 19.3903C96.2518 18.4706 96.2578 16.7224 97.3282 15.4856C98.3985 14.2476 100.127 13.99 101.19 14.9097C102.253 15.8294 102.247 17.5777 101.177 18.8145Z" fill="white"/>
</svg>
