<svg width="40" height="40" viewBox="0 0 40 40" fill="none" xmlns="http://www.w3.org/2000/svg">
<path d="M35.8332 30.0001L24.7618 20.0001M15.238 20.0001L4.16664 30.0001M3.33325 11.6667L16.9414 21.1925C18.0434 21.9639 18.5944 22.3495 19.1937 22.4989C19.7231 22.6309 20.2768 22.6309 20.8061 22.4989C21.4055 22.3495 21.9564 21.9639 23.0584 21.1925L36.6666 11.6667M11.3333 33.3334H28.6666C31.4668 33.3334 32.867 33.3334 33.9365 32.7884C34.8773 32.3091 35.6423 31.5442 36.1216 30.6034C36.6666 29.5338 36.6666 28.1337 36.6666 25.3334V14.6667C36.6666 11.8665 36.6666 10.4664 36.1216 9.3968C35.6423 8.45599 34.8773 7.69108 33.9365 7.21172C32.867 6.66675 31.4668 6.66675 28.6666 6.66675H11.3333C8.53299 6.66675 7.13286 6.66675 6.0633 7.21172C5.12249 7.69108 4.35759 8.45599 3.87822 9.3968C3.33325 10.4664 3.33325 11.8665 3.33325 14.6667V25.3334C3.33325 28.1337 3.33325 29.5338 3.87822 30.6034C4.35759 31.5442 5.12249 32.3091 6.0633 32.7884C7.13286 33.3334 8.53299 33.3334 11.3333 33.3334Z" stroke="black" stroke-width="2" stroke-linecap="round" stroke-linejoin="round"/>
</svg>
