<svg width="40" height="40" viewBox="0 0 40 40" fill="none" xmlns="http://www.w3.org/2000/svg">
<path d="M23.3333 18.3335H13.3333M16.6666 25.0002H13.3333M26.6666 11.6668H13.3333M33.3333 11.3335V28.6668C33.3333 31.4671 33.3333 32.8672 32.7883 33.9368C32.309 34.8776 31.5441 35.6425 30.6032 36.1219C29.5337 36.6668 28.1336 36.6668 25.3333 36.6668H14.6666C11.8664 36.6668 10.4662 36.6668 9.39667 36.1219C8.45586 35.6425 7.69096 34.8776 7.21159 33.9368C6.66663 32.8672 6.66663 31.4671 6.66663 28.6668V11.3335C6.66663 8.53323 6.66663 7.1331 7.21159 6.06354C7.69096 5.12273 8.45586 4.35783 9.39667 3.87846C10.4662 3.3335 11.8664 3.3335 14.6666 3.3335H25.3333C28.1336 3.3335 29.5337 3.3335 30.6032 3.87846C31.5441 4.35783 32.309 5.12273 32.7883 6.06354C33.3333 7.1331 33.3333 8.53323 33.3333 11.3335Z" stroke="black" stroke-width="2" stroke-linecap="round" stroke-linejoin="round"/>
</svg>
