<svg width="40" height="40" viewBox="0 0 40 40" fill="none" xmlns="http://www.w3.org/2000/svg">
<path d="M33.3333 35C33.3333 32.6741 33.3333 31.5111 33.0462 30.5648C32.3999 28.4341 30.7325 26.7667 28.6019 26.1204C27.6555 25.8333 26.4926 25.8333 24.1666 25.8333H15.8333C13.5074 25.8333 12.3444 25.8333 11.3981 26.1204C9.26738 26.7667 7.60003 28.4341 6.95369 30.5648C6.66663 31.5111 6.66663 32.6741 6.66663 35M27.5 12.5C27.5 16.6421 24.1421 20 20 20C15.8578 20 12.5 16.6421 12.5 12.5C12.5 8.35786 15.8578 5 20 5C24.1421 5 27.5 8.35786 27.5 12.5Z" stroke="black" stroke-width="2" stroke-linecap="round" stroke-linejoin="round"/>
</svg>
