<svg width="40" height="40" viewBox="0 0 40 40" fill="none" xmlns="http://www.w3.org/2000/svg">
<path d="M9.99998 10L17.5 17.5M9.99998 10H4.99998L3.33331 5.00004L4.99998 3.33337L9.99998 5.00004V10ZM32.0983 4.5684L27.7189 8.94776C27.0589 9.60778 26.7289 9.9378 26.6052 10.3183C26.4965 10.6531 26.4965 11.0137 26.6052 11.3484C26.7289 11.729 27.0589 12.059 27.7189 12.719L28.1144 13.1144C28.7744 13.7745 29.1044 14.1045 29.485 14.2281C29.8197 14.3369 30.1803 14.3369 30.515 14.2281C30.8956 14.1045 31.2256 13.7745 31.8856 13.1144L35.9821 9.0179C36.4233 10.0915 36.6666 11.2674 36.6666 12.5C36.6666 17.5627 32.5626 21.6667 27.5 21.6667C26.8896 21.6667 26.2932 21.6071 25.7162 21.4933C24.906 21.3335 24.5009 21.2536 24.2553 21.278C23.9942 21.3041 23.8655 21.3432 23.6342 21.467C23.4166 21.5835 23.1983 21.8018 22.7617 22.2383L10.8333 34.1667C9.4526 35.5474 7.21403 35.5474 5.83332 34.1667C4.4526 32.786 4.4526 30.5474 5.83332 29.1667L17.7617 17.2383C18.1983 16.8018 18.4166 16.5835 18.533 16.3659C18.6568 16.1345 18.696 16.0058 18.722 15.7447C18.7464 15.4991 18.6665 15.094 18.5068 14.2838C18.393 13.7068 18.3333 13.1104 18.3333 12.5C18.3333 7.43743 22.4374 3.33337 27.5 3.33337C29.1758 3.33337 30.7466 3.78308 32.0983 4.5684ZM20.0001 24.9999L29.1666 34.1665C30.5473 35.5472 32.7859 35.5472 34.1666 34.1665C35.5473 32.7858 35.5473 30.5472 34.1666 29.1665L26.6255 21.6255C26.0917 21.575 25.5712 21.4787 25.068 21.3406C24.4195 21.1626 23.7082 21.2918 23.2327 21.7673L20.0001 24.9999Z" stroke="black" stroke-width="2" stroke-linecap="round" stroke-linejoin="round"/>
</svg>
