<svg width="40" height="40" viewBox="0 0 40 40" fill="none" xmlns="http://www.w3.org/2000/svg">
<path d="M10.1572 18.7147C10.0536 18.0471 9.99986 17.3631 9.99986 16.6667C9.99986 9.30291 16.0087 3.33337 23.4209 3.33337C30.8332 3.33337 36.842 9.30291 36.842 16.6667C36.842 18.3302 36.5353 19.9225 35.9752 21.3909C35.8588 21.6959 35.8007 21.8483 35.7743 21.9674C35.7481 22.0853 35.738 22.1683 35.7351 22.2891C35.7323 22.411 35.7488 22.5453 35.7819 22.8139L36.4528 28.2642C36.5255 28.8543 36.5618 29.1493 36.4636 29.3637C36.3777 29.5517 36.2249 29.7009 36.0351 29.7825C35.8184 29.8757 35.5243 29.8326 34.9361 29.7464L29.6273 28.9682C29.3502 28.9276 29.2115 28.9073 29.0853 28.908C28.9604 28.9087 28.874 28.9179 28.7518 28.9436C28.6283 28.9696 28.4705 29.0287 28.1549 29.1469C26.6827 29.6983 25.0873 30 23.4209 30C22.7239 30 22.0394 29.9473 21.371 29.8455M12.7192 36.6667C17.6607 36.6667 21.6666 32.5626 21.6666 27.5C21.6666 22.4374 17.6607 18.3334 12.7192 18.3334C7.77772 18.3334 3.77185 22.4374 3.77185 27.5C3.77185 28.5177 3.93371 29.4966 4.2325 30.4113C4.3588 30.7979 4.42195 30.9912 4.44268 31.1233C4.46432 31.2611 4.46811 31.3386 4.46005 31.4779C4.45233 31.6114 4.41894 31.7622 4.35216 32.0639L3.33325 36.6667L8.32459 35.985C8.59703 35.9478 8.73325 35.9292 8.8522 35.93C8.97745 35.9309 9.04393 35.9377 9.16677 35.9622C9.28343 35.9854 9.45685 36.0466 9.8037 36.169C10.7176 36.4916 11.6984 36.6667 12.7192 36.6667Z" stroke="black" stroke-width="2" stroke-linecap="round" stroke-linejoin="round"/>
</svg>
