<svg width="12" height="12" viewBox="0 0 12 12" fill="none" xmlns="http://www.w3.org/2000/svg">
<g clip-path="url(#clip0_2059_4)">
<path d="M11 12.8305C11 11.9133 11 11.4546 10.8923 11.0815C10.65 10.2412 10.0247 9.58368 9.22573 9.32882C8.87083 9.2156 8.43474 9.2156 7.56249 9.2156H4.4375C3.56529 9.2156 3.12916 9.2156 2.7743 9.32882C1.97528 9.58368 1.35003 10.2412 1.10765 11.0815C1 11.4546 1 11.9133 1 12.8305M8.81251 3.95762C8.81251 5.59105 7.5533 6.91524 6.00001 6.91524C4.44669 6.91524 3.18751 5.59105 3.18751 3.95762C3.18751 2.32417 4.44669 1 6.00001 1C7.5533 1 8.81251 2.32417 8.81251 3.95762Z" stroke="white" stroke-linecap="round" stroke-linejoin="round"/>
</g>
<defs>
<clipPath id="clip0_2059_4">
<rect width="12" height="12" fill="white"/>
</clipPath>
</defs>
</svg>
