<svg width="40" height="40" viewBox="0 0 40 40" fill="none" xmlns="http://www.w3.org/2000/svg">
<path d="M19.9998 14.7227C17.147 14.7227 14.7221 17.1477 14.7221 20.0005C14.7221 22.8533 17.147 25.2782 19.9998 25.2782C22.8527 25.2782 25.2777 22.8533 25.2777 20.0005C25.2777 17.1477 22.8527 14.7227 19.9998 14.7227Z" fill="white"/>
<path d="M26.7652 4.1665H13.3788C8.19696 4.1665 4.16666 8.1968 4.16666 13.2347V26.621C4.16666 31.8028 8.19696 35.8332 13.3788 35.8332H26.7652C31.803 35.8332 35.8333 31.8028 35.8333 26.621V13.2347C35.8333 8.1968 31.803 4.1665 26.7652 4.1665ZM20 28.3483C15.3939 28.3483 11.7954 24.6058 11.7954 20.1438C11.7954 15.6817 15.3939 11.7953 20 11.7953C24.606 11.7953 28.2045 15.5377 28.2045 19.9998C28.2045 24.462 24.606 28.3483 20 28.3483ZM28.4925 13.5226C27.4848 13.5226 26.6212 12.6589 26.6212 11.6514C26.6212 10.6438 27.4848 9.78014 28.4925 9.78014C29.5 9.78014 30.3637 10.6438 30.3637 11.6514C30.3637 12.6589 29.5 13.5226 28.4925 13.5226Z" fill="white"/>
</svg>
