<svg width="30" height="30" viewBox="0 0 30 30" fill="none" xmlns="http://www.w3.org/2000/svg">
<g clip-path="url(#clip0_31_53)">
<path d="M0 3.75C0 4.74456 0.395088 5.69839 1.09835 6.40165C1.80161 7.10491 2.75544 7.5 3.75 7.5C4.74456 7.5 5.69839 7.10491 6.40165 6.40165C7.10491 5.69839 7.5 4.74456 7.5 3.75C7.5 2.75544 7.10491 1.80161 6.40165 1.09835C5.69839 0.395088 4.74456 0 3.75 0C2.75544 0 1.80161 0.395088 1.09835 1.09835C0.395088 1.80161 0 2.75544 0 3.75ZM11.25 26.25C11.25 27.2446 11.6451 28.1984 12.3483 28.9017C13.0516 29.6049 14.0054 30 15 30C15.9946 30 16.9484 29.6049 17.6517 28.9017C18.3549 28.1984 18.75 27.2446 18.75 26.25C18.75 25.2554 18.3549 24.3016 17.6517 23.5983C16.9484 22.8951 15.9946 22.5 15 22.5C14.0054 22.5 13.0516 22.8951 12.3483 23.5983C11.6451 24.3016 11.25 25.2554 11.25 26.25ZM11.25 15C11.25 15.9946 11.6451 16.9484 12.3483 17.6517C13.0516 18.3549 14.0054 18.75 15 18.75C15.9946 18.75 16.9484 18.3549 17.6517 17.6517C18.3549 16.9484 18.75 15.9946 18.75 15C18.75 14.0054 18.3549 13.0516 17.6517 12.3483C16.9484 11.6451 15.9946 11.25 15 11.25C14.0054 11.25 13.0516 11.6451 12.3483 12.3483C11.6451 13.0516 11.25 14.0054 11.25 15ZM11.25 3.75C11.25 4.74456 11.6451 5.69839 12.3483 6.40165C13.0516 7.10491 14.0054 7.5 15 7.5C15.9946 7.5 16.9484 7.10491 17.6517 6.40165C18.3549 5.69839 18.75 4.74456 18.75 3.75C18.75 2.75544 18.3549 1.80161 17.6517 1.09835C16.9484 0.395088 15.9946 0 15 0C14.0054 0 13.0516 0.395088 12.3483 1.09835C11.6451 1.80161 11.25 2.75544 11.25 3.75ZM22.5 3.75C22.5 4.74456 22.8951 5.69839 23.5983 6.40165C24.3016 7.10491 25.2554 7.5 26.25 7.5C27.2446 7.5 28.1984 7.10491 28.9017 6.40165C29.6049 5.69839 30 4.74456 30 3.75C30 2.75544 29.6049 1.80161 28.9017 1.09835C28.1984 0.395088 27.2446 0 26.25 0C25.2554 0 24.3016 0.395088 23.5983 1.09835C22.8951 1.80161 22.5 2.75544 22.5 3.75Z" fill="white"/>
</g>
<defs>
<clipPath id="clip0_31_53">
<rect width="30" height="30" fill="white"/>
</clipPath>
</defs>
</svg>
