<svg width="72" height="22" viewBox="0 0 72 22" fill="none" xmlns="http://www.w3.org/2000/svg">
<rect width="72" height="22" rx="5" fill="#F0F4FF" fill-opacity="0.8"/>
<g clip-path="url(#clip0_21_84)">
<path d="M15 5L9 5C7.34315 5 6 6.34315 6 8L6 14C6 15.6569 7.34315 17 9 17H15C16.6569 17 18 15.6569 18 14V8C18 6.34315 16.6569 5 15 5Z" fill="#5080FA"/>
<path fill-rule="evenodd" clip-rule="evenodd" d="M14.553 7.402C14.255 7.134 13.869 7 13.396 7C12.766 7 12.226 7.187 11.776 7.56C11.5646 7.72802 11.3889 7.93653 11.259 8.17332C11.1292 8.41011 11.048 8.67041 11.02 8.939C11.005 9.11 11.008 9.505 11.235 10.009C11.35 10.235 11.539 10.499 11.805 10.801C12.185 11.236 12.433 11.557 12.548 11.765C12.663 11.972 12.72 12.202 12.72 12.455C12.72 12.856 12.579 13.204 12.296 13.499C12.013 13.794 11.68 13.942 11.296 13.942C10.95 13.942 10.663 13.83 10.438 13.607C10.3263 13.4963 10.2387 13.3638 10.1805 13.2177C10.1224 13.0716 10.095 12.9151 10.1 12.758C10.1 12.542 10.164 12.323 10.293 12.102C10.421 11.882 10.58 11.71 10.772 11.586L10.77 11.584C10.8526 11.5348 10.9209 11.465 10.9683 11.3813C11.0156 11.2977 11.0403 11.2031 11.04 11.107C11.04 10.803 10.8 10.557 10.504 10.557C10.4158 10.557 10.3291 10.5793 10.252 10.622V10.62C10.161 10.675 10.069 10.741 9.974 10.818C9.324 11.346 9 12.004 9 12.793C9 13.438 9.209 13.967 9.626 14.38C10.043 14.793 10.577 15 11.23 15C12.072 15 12.754 14.693 13.274 14.08C13.6495 13.6478 13.8528 13.0925 13.845 12.52C13.845 11.91 13.63 11.331 13.199 10.784L12.976 10.508L12.832 10.32L12.284 9.619C11.982 9.239 12.109 8.834 12.109 8.834C12.159 8.643 12.283 8.469 12.483 8.314C12.731 8.12 13.006 8.024 13.308 8.024C13.4713 8.01564 13.6332 8.05752 13.772 8.144C13.888 8.225 13.946 8.332 13.946 8.464C13.946 8.711 13.796 8.867 13.496 8.935L13.497 8.936C13.381 8.96131 13.2772 9.02586 13.2033 9.11877C13.1293 9.21168 13.0897 9.32725 13.091 9.446C13.091 9.733 13.317 9.966 13.596 9.966C13.636 9.966 13.675 9.961 13.712 9.952C13.952 9.909 14.145 9.842 14.29 9.747C14.763 9.445 15 9.01 15 8.443C15 8.017 14.851 7.67 14.553 7.402Z" fill="white"/>
</g>
<path d="M30.6 10.068L26.388 8.232C25.668 8.964 24.456 9.576 22.692 10.068L22.44 9.324C25.008 8.58 26.328 7.584 26.328 6.42V5.88H27.168V6.42C27.168 6.828 27.072 7.212 26.88 7.572L30.936 9.36L30.6 10.068ZM31.872 10.848V11.616H27.12V13.032H30.552V16.8H22.848V13.032H26.268V11.616H21.504V10.848H31.872ZM23.7 16.056H29.688V13.776H23.7V16.056ZM41.1269 7.788V7.44L34.0469 7.44V6.66H41.9789V7.596C41.9789 9.156 41.7149 11.268 41.3669 13.164L40.5269 13.008C40.8749 11.148 41.1269 9 41.1269 7.788ZM37.7429 10.428V15.12H43.2509V15.912L32.8829 15.912V15.12H36.8909V10.428H37.7429ZM52.9138 16.8V5.724H53.7538V16.8H52.9138ZM49.0858 10.176H50.5978V5.904H51.4258V16.596H50.5978V10.956H49.0858V10.176ZM48.4618 7.404V14.028C48.9178 13.98 49.3618 13.932 49.7938 13.872L49.8898 14.628C48.5698 14.844 46.9138 14.964 45.5458 14.964H44.1658L44.1298 14.172H45.1858V7.404H44.1898V6.612H49.4458V7.404H48.4618ZM47.6578 14.088V7.404H45.9778V14.172C46.4818 14.16 47.0578 14.136 47.6578 14.088ZM65.0007 16.8H64.1367V5.724H65.0007V16.8ZM58.9647 15.324C57.4047 15.324 56.1207 14.28 56.1207 11.652V9.996C56.1207 7.368 57.4047 6.324 58.9647 6.324C60.5247 6.324 61.8087 7.368 61.8087 9.996V11.652C61.8087 14.28 60.5247 15.324 58.9647 15.324ZM58.9647 14.532C60.1047 14.532 60.9567 13.704 60.9567 11.64V9.996C60.9567 7.932 60.1047 7.116 58.9647 7.116C57.8247 7.116 56.9847 7.932 56.9847 9.996V11.64C56.9847 13.704 57.8247 14.532 58.9647 14.532Z" fill="#5080FA"/>
<defs>
<clipPath id="clip0_21_84">
<rect width="12" height="12" fill="white" transform="translate(6 5)"/>
</clipPath>
</defs>
</svg>
